<?xml version="1.0" encoding="UTF-8"?>
<svg width="24px" height="24px" viewBox="0 0 24 24" version="1.1" xmlns="http://www.w3.org/2000/svg" xmlns:xlink="http://www.w3.org/1999/xlink">
    <!-- Generator: Sketch 47 (45396) - http://www.bohemiancoding.com/sketch -->
    <title>icon_基础信息 copy 3</title>
    <desc>Created with Sketch.</desc>
    <defs></defs>
    <g id="Page-1" stroke="none" stroke-width="1" fill="none" fill-rule="evenodd">
        <g id="仓库管理-查看堆场" transform="translate(-32.000000, -312.000000)" fill-rule="nonzero" fill="#A983F9">
            <g id="nav">
                <g id="line-copy-2" transform="translate(0.000000, 287.000000)">
                    <g id="云箱" transform="translate(32.000000, 25.000000)">
                        <path d="M12.2874911,1.10232445 C12.1655404,1.0984692 12.0443734,1.12316776 11.9336219,1.17445679 L1.73728962,5.88914789 C1.73447178,5.89066542 1.73166324,5.89220022 1.72886415,5.89375218 C1.71958924,5.89792115 1.7103961,5.90227036 1.70128993,5.90679734 C1.37555407,6.06694136 1.20196113,6.43000176 1.28154908,6.78466299 L1.28154908,17.6029758 C1.28151006,17.9095548 1.45943373,18.1881676 1.73728962,18.3166252 L11.9336219,23.0313163 C11.9445012,23.0359125 11.9554827,23.040262 11.966558,23.0443615 C11.9731572,23.0472668 11.979796,23.0500808 11.9864726,23.0528027 C12.0033803,23.0590185 12.0204966,23.0646491 12.0377912,23.0696845 C12.0464272,23.0723927 12.0551094,23.0749511 12.0638338,23.0773584 C12.0772818,23.080787 12.0908183,23.0838575 12.1044289,23.0865666 C12.11739,23.0891982 12.1304154,23.091501 12.1434926,23.0934728 C12.1577384,23.0956578 12.1720416,23.097449 12.1863859,23.0988444 C12.1978568,23.0998653 12.2093487,23.1006329 12.2208534,23.1011468 C12.2341213,23.1017403 12.2474021,23.1019962 12.260683,23.1019141 C12.274219,23.1020093 12.2877553,23.1017534 12.3012781,23.1011468 C12.3127829,23.1006329 12.324275,23.0998653 12.335746,23.0988444 C12.3508584,23.0974921 12.3659284,23.0957008 12.380937,23.0934728 C12.390928,23.0918756 12.4008872,23.0900849 12.4108091,23.0881016 C12.4272595,23.0850452 12.4436082,23.0814623 12.4598299,23.0773584 C12.4680368,23.0751893 12.476208,23.072887 12.4843403,23.0704522 C12.501635,23.0654167 12.5187515,23.059786 12.5356593,23.05357 C12.5441466,23.050137 12.5525733,23.0465554 12.5609356,23.0428268 C12.5709701,23.0391939 12.5809295,23.0353563 12.5908077,23.0313163 L22.7871401,18.3166252 C23.064996,18.1881675 23.2429196,17.9095548 23.2428805,17.6029758 L23.2428805,6.78619762 C23.3234014,6.43041004 23.1489318,6.06588982 22.8216077,5.90603002 C22.8127549,5.90151181 22.8038172,5.8971625 22.7947995,5.89298447 C22.7922534,5.89169166 22.7897002,5.89041278 22.7871401,5.88914789 L12.5908077,1.17445679 C12.4955375,1.13032407 12.3923954,1.10579564 12.2874911,1.10232445 Z M12.2622148,2.75292675 L20.5873304,6.60203 L12.2622148,10.4519006 L3.93709916,6.60203 L12.2622148,2.75292675 Z M2.85021562,7.83058145 L11.4778815,11.8201126 L11.4778815,21.0898827 L2.85021562,17.1003516 L2.85021562,7.83058145 Z M21.674214,7.83058145 L21.674214,17.1003516 L13.0465481,21.0898827 L13.0465481,11.8201126 L21.674214,7.83058145 Z" id="Shape"></path>
                    </g>
                </g>
            </g>
        </g>
    </g>
</svg>