<?xml version="1.0" encoding="UTF-8"?>
<svg width="24px" height="24px" viewBox="0 0 24 24" version="1.1" xmlns="http://www.w3.org/2000/svg" xmlns:xlink="http://www.w3.org/1999/xlink">
    <!-- Generator: Sketch 47 (45396) - http://www.bohemiancoding.com/sketch -->
    <title>icon_报表管理</title>
    <desc>Created with Sketch.</desc>
    <defs></defs>
    <g id="Page-1" stroke="none" stroke-width="1" fill="none" fill-rule="evenodd">
        <g id="仓库管理-方格展示" transform="translate(-32.000000, -380.000000)" stroke-width="0.4" stroke="#44C0E3" fill="#44C0E3" fill-rule="nonzero">
            <g id="nav">
                <g id="logo">
                    <g id="line-copy-3" transform="translate(0.000000, 354.000000)">
                        <g id="报表" transform="translate(32.000000, 26.000000)">
                            <path d="M17.4628663,12.0065062 L6.53713368,12.0065062 C6.24086712,12.0065062 6,11.781067 6,11.5032531 C6,11.2254392 6.24086712,11 6.53713368,11 L17.4628663,11 C17.7591329,11 18,11.2254392 18,11.5032531 C18,11.781067 17.7615415,12.0065062 17.4628663,12.0065062 L17.4628663,12.0065062 Z M17.4628663,15.0032531 L6.53713368,15.0032531 C6.24086712,15.0032531 6,14.7778139 6,14.5 C6,14.2221861 6.24086712,13.9967469 6.53713368,13.9967469 L17.4628663,13.9967469 C17.7591329,13.9967469 18,14.2221861 18,14.5 C18,14.7778139 17.7615415,15.0032531 17.4628663,15.0032531 L17.4628663,15.0032531 Z M11.5784825,18 L6.53713368,18 C6.24086712,18 6,17.7745608 6,17.4967469 C6,17.218933 6.24086712,16.9934938 6.53713368,16.9934938 L11.5784825,16.9934938 C11.8747491,16.9934938 12.1156162,17.218933 12.1156162,17.4967469 C12.1156162,17.7745608 11.8771578,18 11.5784825,18 L11.5784825,18 Z" id="Shape"></path>
                            <path d="M18.4614169,22 L5.53858309,22 C4.13774032,22 3,20.8868597 3,19.5211581 L3,3.47884187 C3,2.11080178 4.13774032,1 5.53858309,1 L18.4614169,1 C19.8622597,1 21,2.11314031 21,3.47884187 L21,19.5188196 C21,20.8868597 19.8622597,22 18.4614169,22 Z M5.53858309,2.23708241 C4.83697656,2.23708241 4.2681064,2.79365256 4.2681064,3.47884187 L4.2681064,19.5188196 C4.2681064,20.2040089 4.83934685,20.7605791 5.53858309,20.7605791 L18.4614169,20.7605791 C19.1630234,20.7605791 19.7318936,20.2040089 19.7318936,19.5188196 L19.7318936,3.47884187 C19.7318936,2.79365256 19.1606531,2.23708241 18.4614169,2.23708241 L5.53858309,2.23708241 Z" id="Shape"></path>
                            <path d="M6.53920719,9 C6.39384908,9 6.24849097,8.94823824 6.14189502,8.84471472 C5.94081629,8.65060812 5.95535211,8.35082127 6.17338928,8.17181185 L10.1125941,4.98630692 C10.3233634,4.81592446 10.6479965,4.8180812 10.8563432,4.99709062 L13.3128953,7.11069579 L17.0994741,4.12145419 C17.3199339,3.94675825 17.6615255,3.96185543 17.8626042,4.15811877 C18.0612603,4.35438211 18.0418792,4.65416896 17.8214194,4.83102164 L13.6569095,8.11573661 C13.4437176,8.28180559 13.1239297,8.27749211 12.9180057,8.10279617 L10.4662989,5.99350448 L6.90502511,8.87490908 C6.8008518,8.9568652 6.6700295,9 6.53920719,9 L6.53920719,9 Z" id="Shape"></path>
                        </g>
                    </g>
                </g>
            </g>
        </g>
    </g>
</svg>