<?xml version="1.0" encoding="UTF-8"?>
<svg width="24px" height="25px" viewBox="0 0 24 25" version="1.1" xmlns="http://www.w3.org/2000/svg" xmlns:xlink="http://www.w3.org/1999/xlink">
    <!-- Generator: Sketch 47 (45396) - http://www.bohemiancoding.com/sketch -->
    <title>icon_my_company</title>
    <desc>Created with Sketch.</desc>
    <defs></defs>
    <g id="Page-1" stroke="none" stroke-width="1" fill="none" fill-rule="evenodd">
        <g id="dashboard" transform="translate(-32.000000, -171.000000)" fill-rule="nonzero" fill="#F5A623">
            <g id="nav">
                <g id="line-copy-4" transform="translate(0.000000, 149.000000)">
                    <g id="运输企业" transform="translate(32.000000, 22.285714)">
                        <g id="企业" transform="translate(1.500000, 3.515422)">
                            <path d="M20.4605166,18.5053249 L0.842724118,18.5053249 C0.446336033,18.5053249 0.125,18.1839888 0.125,17.7876007 C0.125,17.3912126 0.446336033,17.0698766 0.842724118,17.0698766 L1.0819655,17.0698766 L1.0819655,1.75842882 C1.10184579,0.974034899 1.73301979,0.34286089 2.51741371,0.322980583 L11.1301031,0.322980583 C11.9145999,0.342621033 12.5459109,0.973931987 12.5655513,1.75842882 L12.5655513,4.67717355 L18.0681029,4.67717355 C18.8329577,4.68191642 19.4497424,5.30469343 19.4470902,6.06955833 L19.4470902,17.0698766 L20.4605166,17.0698766 C20.8569047,17.0698766 21.1782407,17.3912126 21.1782407,17.7876007 C21.1782407,18.1839888 20.8569047,18.5053249 20.4605166,18.5053249 Z M11.1301031,2.23691156 C11.1301031,1.97265284 10.9158791,1.75842882 10.6516204,1.75842882 L2.99589647,1.75842882 C2.86899496,1.75842881 2.74729099,1.80884024 2.65755807,1.89857316 C2.56782515,1.98830608 2.51741371,2.11001004 2.51741371,2.23691156 L2.51741371,16.5913939 C2.51741371,16.7182954 2.56782515,16.8399994 2.65755807,16.9297323 C2.74729099,17.0194652 2.86899496,17.0698766 2.99589647,17.0698766 L10.6516204,17.0698766 C10.7785219,17.0698766 10.9002258,17.0194652 10.9899588,16.9297323 C11.0796917,16.8399993 11.1301031,16.7182954 11.1301031,16.5913939 L11.1301031,2.23691156 L11.1301031,2.23691156 Z M17.8288615,6.54325624 C17.8206555,6.28247217 17.6111629,6.07297951 17.3503788,6.06477351 L12.5655513,6.08295586 L12.5655513,17.0698766 L17.8288615,17.0698766 L17.8288615,6.54325624 L17.8288615,6.54325624 Z M14.7187237,7.021739 L15.6756892,7.021739 C16.0720298,7.02180608 16.3932918,7.34312246 16.3932918,7.73946311 C16.3932918,8.13580376 16.0720298,8.45712014 15.6756892,8.45718722 L14.7187237,8.45718722 C14.3223831,8.45712014 14.0011211,8.13580376 14.0011211,7.73946311 C14.0011211,7.34312246 14.3223831,7.02180608 14.7187237,7.021739 L14.7187237,7.021739 Z M14.7187237,9.89263546 L15.6756892,9.89263546 C16.0720772,9.89263547 16.3934133,10.2139715 16.3934133,10.6103596 C16.3934133,11.0067476 16.0720772,11.3280837 15.6756892,11.3280837 L14.7187237,11.3280837 C14.3223356,11.3280837 14.0009996,11.0067476 14.0009996,10.6103596 C14.0009996,10.2139715 14.3223356,9.89263547 14.7187237,9.89263546 L14.7187237,9.89263546 Z M9.45541351,10.849601 L8.49844802,10.849601 C8.10205994,10.8496009 7.78072393,10.5282649 7.78072393,10.1318768 C7.78072393,9.73548876 8.10205994,9.41415273 8.49844802,9.41415272 L9.45541351,9.41415272 C9.8518016,9.41415272 10.1731376,9.73548875 10.1731376,10.1318768 C10.1731376,10.5282649 9.8518016,10.849601 9.45541351,10.849601 L9.45541351,10.849601 Z M9.45541351,7.97870448 L8.49844802,7.97870448 C8.10205994,7.97870446 7.78072393,7.65736844 7.78072393,7.26098036 C7.78072393,6.86459229 8.10205994,6.54325626 8.49844802,6.54325624 L9.45541351,6.54325624 C9.85180159,6.54325626 10.1731376,6.86459229 10.1731376,7.26098036 C10.1731376,7.65736844 9.85180159,7.97870446 9.45541351,7.97870448 L9.45541351,7.97870448 Z M9.45541351,5.10780803 L8.49844802,5.10780803 C8.10205993,5.10780803 7.7807239,4.786472 7.7807239,4.39008391 C7.7807239,3.99369583 8.10205993,3.67235979 8.49844802,3.67235979 L9.45541351,3.67235979 C9.8518016,3.67235979 10.1731376,3.99369583 10.1731376,4.39008391 C10.1731376,4.786472 9.8518016,5.10780803 9.45541351,5.10780803 L9.45541351,5.10780803 Z M5.14906881,10.849601 L4.19210333,10.849601 C3.93568519,10.849601 3.69874506,10.7128035 3.57053598,10.4907389 C3.44232691,10.2686743 3.44232691,9.99507939 3.57053598,9.77301477 C3.69874506,9.55095015 3.93568519,9.41415271 4.19210333,9.41415272 L5.14906881,9.41415272 C5.54545688,9.41415273 5.86679289,9.73548876 5.86679289,10.1318768 C5.86679289,10.5282649 5.54545688,10.8496009 5.14906881,10.849601 L5.14906881,10.849601 Z M5.14906881,7.97870448 L4.19210333,7.97870448 C3.93568519,7.97870449 3.69874506,7.84190705 3.57053598,7.61984243 C3.44232691,7.39777781 3.44232691,7.12418291 3.57053598,6.9021183 C3.69874506,6.68005368 3.93568519,6.54325623 4.19210333,6.54325624 L5.14906881,6.54325624 C5.54545688,6.54325626 5.86679289,6.86459229 5.86679289,7.26098036 C5.86679289,7.65736844 5.54545688,7.97870446 5.14906881,7.97870448 Z M5.14906881,5.10780803 L4.19210333,5.10780803 C3.93568519,5.10780804 3.69874506,4.97101059 3.57053599,4.74894598 C3.44232692,4.52688136 3.44232692,4.25328646 3.57053599,4.03122185 C3.69874506,3.80915723 3.93568519,3.67235979 4.19210333,3.67235979 L5.14906881,3.67235979 C5.54545688,3.67235981 5.8667929,3.99369583 5.8667929,4.39008391 C5.8667929,4.78647199 5.54545688,5.10780802 5.14906881,5.10780803 L5.14906881,5.10780803 Z" id="Shape"></path>
                        </g>
                    </g>
                </g>
            </g>
        </g>
    </g>
</svg>