<?xml version="1.0" encoding="UTF-8"?>
<svg width="24px" height="24px" viewBox="0 0 24 24" version="1.1" xmlns="http://www.w3.org/2000/svg" xmlns:xlink="http://www.w3.org/1999/xlink">
    <!-- Generator: Sketch 47 (45396) - http://www.bohemiancoding.com/sketch -->
    <title>icon_云箱监控 copy 3</title>
    <desc>Created with Sketch.</desc>
    <defs></defs>
    <g id="Page-1" stroke="none" stroke-width="1" fill="none" fill-rule="evenodd">
        <g id="仓库管理-查看堆场" transform="translate(-32.000000, -240.000000)" fill-rule="nonzero" fill="#63BA6C">
            <g id="nav">
                <g id="line-copy" transform="translate(0.000000, 218.000000)">
                    <g id="仓库" transform="translate(32.000000, 22.000000)">
                        <path d="M22.6036508,8.09705176 L12.3879521,2.11651377 C12.1485385,1.96116208 11.8292795,1.96116208 11.589866,2.11651377 L1.37411821,8.09705176 C0.975087431,8.33010322 0.895217438,8.79613438 1.13470465,9.18444187 C1.37411821,9.57282111 1.85299443,9.65047304 2.25204977,9.41749333 L3.12998132,8.8737624 L3.12998132,21.2232894 C3.12998132,21.6892488 3.44916666,22 3.92806743,22 C4.40689455,22 4.72615355,21.6892488 4.72615355,21.2232894 L4.72615355,7.94170007 L11.9889459,3.66991113 L19.2516645,7.94170007 L19.2516645,21.2232894 C19.2516645,21.6892488 19.5709235,22 20.0497507,22 C20.5286514,22 20.8479104,21.6892488 20.8479104,21.2232894 L20.8479104,8.8737624 L21.8056138,9.41749333 C21.9652555,9.49512134 22.0450273,9.49512134 22.2046446,9.49512134 C22.4440581,9.49512134 22.7633171,9.3398414 22.9229343,9.10681386 C23.0825516,8.79613438 23.0027061,8.2524752 22.6036508,8.09705176 Z M7.83331411,19 C7.33327437,19 7,19.4000123 7,20.0000462 C7,20.6000801 7.33327437,21 7.83331411,21 L16.166609,21 C16.6666487,21 17,20.6000801 17,20.0000462 C17,19.4000123 16.5833558,19 16.1666346,19 L7.83331411,19 Z M7.83331411,15 C7.33327437,15 7,15.4000123 7,15.9999538 C7,16.5999877 7.33327437,17 7.83331411,17 L16.166609,17 C16.6666487,17 17,16.5999877 17,15.9999538 C17,15.4000123 16.5833558,15 16.1666346,15 L7.83331411,15 Z" id="Shape"></path>
                    </g>
                </g>
            </g>
        </g>
    </g>
</svg>